PathFileType	4	(x/y/z)	S04_BK_Cal.trc
DataRate	CameraRate	NumFrames	NumMarkers	Units	OrigDataRate	OrigDataStartFrame	OrigNumFrames
240	240	4	51	mm	240	2101	2400
Frame#	Time	Sternum			R.Acromium			L.Acromium			Top.Head			R.ASIS			L.ASIS			R.PSIS			L.PSIS			R.Great.Tro			L.Great.Tro			R.Iliac.Crest			L.Iliac.Crest			V.Sacral			R.Thigh.Upper.Post			R.Thigh.Lower.Ant			R.Thigh.Lower.Post			R.Thigh.Upper.Ant			R.Knee.Lat			R.Knee.Med			R.Shank.Upper.Post			R.Shank.Lower.Ant			R.Shank.Lower.Post			R.Shank.Upper.Ant			R.Ankle.Lat			R.Ankle.Med			R.Heel.Upper			R.Heel.Med			R.Heel.Lat			R.Toe.Lat			R.Toe.Med			R.Toe.Tip			L.Thigh.Upper.Post			L.Thigh.Lower.Ant			L.Thigh.Lower.Post			L.Thigh.Upper.Ant			L.Knee.Lat			L.Knee.Med			L.Shank.Upper.Post			L.Shank.Lower.Ant			L.Shank.Lower.Post			L.Shank.Upper.Ant			L.Ankle.Lat			L.Ankle.Med			L.Heel.Upper			L.Heel.Med			L.Heel.Lat			L.Toe.Lat			L.Toe.Med			L.Toe.Tip			Cervical.Spine			Back			
		X1	Y1	Z1	X2	Y2	Z2	X3	Y3	Z3	X4	Y4	Z4	X5	Y5	Z5	X6	Y6	Z6	X7	Y7	Z7	X8	Y8	Z8	X9	Y9	Z9	X10	Y10	Z10	X11	Y11	Z11	X12	Y12	Z12	X13	Y13	Z13	X14	Y14	Z14	X15	Y15	Z15	X16	Y16	Z16	X17	Y17	Z17	X18	Y18	Z18	X19	Y19	Z19	X20	Y20	Z20	X21	Y21	Z21	X22	Y22	Z22	X23	Y23	Z23	X24	Y24	Z24	X25	Y25	Z25	X26	Y26	Z26	X27	Y27	Z27	X28	Y28	Z28	X29	Y29	Z29	X30	Y30	Z30	X31	Y31	Z31	X32	Y32	Z32	X33	Y33	Z33	X34	Y34	Z34	X35	Y35	Z35	X36	Y36	Z36	X37	Y37	Z37	X38	Y38	Z38	X39	Y39	Z39	X40	Y40	Z40	X41	Y41	Z41	X42	Y42	Z42	X43	Y43	Z43	X44	Y44	Z44	X45	Y45	Z45	X46	Y46	Z46	X47	Y47	Z47	X48	Y48	Z48	X49	Y49	Z49	X50	Y50	Z50	X51	Y51	Z51	

2101	8.75	347.88	1220.3	290.39	225.83	1450.5	471.03	203.56	1440.1	124.97	226.91	1771	288.36	315.29	936.57	430.13	314.66	951.19	181.82	102.04	977.41	332.14	108.68	980.57	249.03	226.33	865.13	497.41	202.49	868.96	112.49	236.77	1030.4	471.95	218.61	1035.5	135.35	83.848	937.26	290.61	302.04	615.46	511.12	402.51	560.98	489.15	332.38	529.76	500.55	373.48	667.49	501.53	371.23	470.29	494.58	359.6	458.32	367.11	230.98	287.32	504.25	264.85	188.12	463.22	205.75	221.58	491.82	288.67	255.08	484.55	166.6	110.96	477.82	190.8	115.62	388.64	97.979	75.964	421.39	108.34	45.053	392.36	98.568	44.68	456.83	263.75	39.87	519.24	311.38	39.42	402.88	369.38	56.018	457.06	259.64	634.42	103.02	368.74	572.41	88.397	300.35	554.35	105.53	324.11	651.63	84.79	365.95	478.2	99.167	381.68	456.7	223.34	230.55	342.19	92.54	266.84	237.3	86.414	210.15	266.97	93.961	287.2	311.21	83.139	178.97	104.93	97.75	187.04	111.31	191.96	101.49	73.302	141.45	108.69	47.562	174.92	105.23	46.332	112.97	288.02	42.593	69.67	321.65	47.825	184.72	377.81	57.013	134	172.41	1494.1	302.6	90.798	1239.3	285.37
2102	8.7542	347.88	1220.3	290.39	225.83	1450.5	471.02	203.56	1440.1	124.97	226.88	1771	288.35	315.29	936.57	430.14	314.66	951.19	181.83	102.04	977.4	332.15	108.68	980.56	249.04	226.33	865.12	497.41	202.49	868.95	112.5	236.76	1030.4	471.95	218.61	1035.5	135.36	83.844	937.25	290.61	302.05	615.45	511.13	402.51	560.97	489.15	332.38	529.76	500.55	373.48	667.48	501.53	371.23	470.28	494.59	359.61	458.32	367.11	230.98	287.32	504.25	264.85	188.12	463.22	205.75	221.58	491.82	288.67	255.08	484.55	166.6	110.96	477.82	190.8	115.62	388.64	97.98	75.964	421.39	108.35	45.046	392.37	98.569	44.68	456.83	263.75	39.869	519.24	311.38	39.419	402.88	369.38	56.017	457.06	259.64	634.41	103.02	368.74	572.41	88.402	300.35	554.34	105.54	324.11	651.63	84.793	365.96	478.2	99.171	381.68	456.7	223.35	230.55	342.19	92.542	266.85	237.29	86.416	210.16	266.97	93.962	287.2	311.2	83.14	178.97	104.93	97.751	187.04	111.31	191.96	101.49	73.301	141.45	108.69	47.562	174.92	105.23	46.331	112.97	288.02	42.593	69.67	321.65	47.824	184.72	377.81	57.012	134.01	172.41	1494.1	302.6	90.797	1239.3	285.38
2103	8.7583	347.88	1220.3	290.39	225.83	1450.4	471.02	203.55	1440.1	124.97	226.85	1771	288.34	315.28	936.56	430.14	314.66	951.18	181.83	102.04	977.39	332.16	108.67	980.55	249.04	226.34	865.12	497.4	202.49	868.95	112.5	236.76	1030.4	471.96	218.6	1035.5	135.36	83.839	937.25	290.62	302.05	615.44	511.13	402.52	560.97	489.16	332.39	529.76	500.56	373.48	667.48	501.54	371.24	470.28	494.59	359.62	458.31	367.11	230.99	287.32	504.26	264.86	188.12	463.22	205.75	221.58	491.82	288.68	255.07	484.55	166.6	110.96	477.82	190.8	115.62	388.65	97.98	75.964	421.39	108.36	45.038	392.37	98.569	44.68	456.83	263.75	39.867	519.24	311.38	39.419	402.88	369.38	56.016	457.06	259.64	634.4	103.02	368.75	572.4	88.406	300.35	554.34	105.54	324.12	651.62	84.795	365.97	478.2	99.175	381.69	456.69	223.35	230.56	342.19	92.543	266.85	237.29	86.418	210.16	266.97	93.964	287.21	311.2	83.142	178.97	104.93	97.751	187.04	111.31	191.96	101.49	73.301	141.45	108.69	47.562	174.91	105.23	46.331	112.97	288.02	42.593	69.67	321.65	47.824	184.72	377.81	57.011	134.01	172.4	1494.1	302.6	90.794	1239.3	285.38
2104	8.7625	347.88	1220.3	290.39	225.83	1450.4	471.02	203.55	1440.1	124.97	226.81	1771	288.33	315.28	936.56	430.15	314.65	951.17	181.84	102.03	977.38	332.16	108.67	980.54	249.05	226.34	865.11	497.4	202.49	868.94	112.5	236.76	1030.4	471.97	218.6	1035.5	135.37	83.834	937.24	290.62	302.05	615.44	511.13	402.52	560.97	489.16	332.39	529.75	500.56	373.48	667.48	501.54	371.24	470.27	494.59	359.62	458.31	367.12	230.99	287.32	504.26	264.86	188.11	463.22	205.76	221.58	491.82	288.68	255.07	484.55	166.6	110.96	477.82	190.8	115.62	388.65	97.981	75.964	421.39	108.37	45.031	392.38	98.569	44.68	456.83	263.75	39.865	519.24	311.39	39.419	402.88	369.38	56.015	457.06	259.64	634.4	103.03	368.75	572.4	88.41	300.36	554.33	105.54	324.12	651.62	84.797	365.97	478.19	99.179	381.7	456.68	223.35	230.56	342.19	92.544	266.86	237.29	86.421	210.16	266.97	93.965	287.21	311.2	83.143	178.97	104.93	97.751	187.04	111.31	191.96	101.49	73.3	141.45	108.69	47.562	174.91	105.23	46.33	112.97	288.02	42.593	69.669	321.65	47.823	184.72	377.81	57.01	134.01	172.4	1494.1	302.59	90.791	1239.3	285.39
